# 
# Generated by Sweet Home 3D - Fri Mar 14 14:20:43 CDT 2025
# http://www.sweethome3d.com/
# 
mtllib justwalls.mtl
g ground_1
usemtl ground_1
v -6.8728976 0.0 -8.889999
v -1.0712049 0.0 -6.7785206
v 2.7473004 0.0 0.8414788
v 10977.657 0.0 0.8414788
v 9753.908 0.0 4567.9336
v -1.0710049 0.0 4567.9326
v -6.8728976 0.0 4570.73
v 10979.337 0.0 4570.73
v 10979.337 0.0 -8.889999
vn 0.0 1.0 0.0
vn 0.0 0.0 0.0
f 2//1 1//1 7//1
f 6//1 2//1 7//1
f 6//1 7//1 8//1
f 5//1 6//1 8//1
f 4//1 5//1 8//1
f 4//1 8//1 9//1
f 4//1 9//1 1//1
f 4//1 1//1 2//1
f 4//1 2//1 3//1
g wall_1_2
usemtl wall_1_2
v 10975.657 0.0 -8.889999
v -3.0625386 0.0 -8.778521
v -3.0625 0.0 -4.968521
v 10975.657 0.0 -5.08
vn 0.0 -1.0 0.0
f 13//3 12//3 11//3
f 13//3 11//3 10//3
g wall_1_3
usemtl wall_1_2
v -3.0624614 0.0 -1.1585212
v 10975.657 0.0 -1.27
f 15//3 14//3 12//3
f 15//3 12//3 13//3
g wall_1_4
usemtl wall_1_2
v -3.0625386 1524.0 -8.778521
v 10975.657 1524.0 -8.889999
v -3.0625 1524.0 -4.968521
v 10975.657 1524.0 -5.08
vn -0.0000102 0.0 -1.0
vn -1.0 0.0 0.0000101
vn 1.0 0.0 0.0
f 10//4 11//4 16//4 17//4
f 11//5 12//5 18//5 16//5
f 13//6 10//6 17//6 19//6
g wall_1_5
usemtl wall_1_2
v -3.0624614 1524.0 -1.1585212
v 10975.657 1524.0 -1.27
vn -1.0 0.0 0.0000101
vn 0.0000102 0.0 1.0
f 12//7 14//7 20//7 18//7
f 14//8 15//8 21//8 20//8
f 15//6 13//6 19//6 21//6
g wall_1_6
usemtl wall_1_2
f 17//1 16//1 18//1
f 17//1 18//1 19//1
g wall_1_7
usemtl wall_1_2
f 19//1 18//1 20//1
f 19//1 20//1 21//1
g wall_2_8
usemtl wall_1_2
v 9750.425 0.0 4566.92
v 9754.1045 0.0 4567.9062
v 10979.337 0.0 -4.093773
f 24//3 23//3 22//3
f 24//3 22//3 13//3
g wall_2_9
usemtl wall_1_2
v 10971.978 0.0 -6.066227
v 9746.745 0.0 4565.9336
f 13//3 22//3 26//3
f 13//3 26//3 25//3
g wall_2_10
usemtl wall_1_2
v 9754.1045 1524.0 4567.9062
v 9750.425 1524.0 4566.92
v 10979.337 1524.0 -4.093773
vn -0.25890693 0.0 0.9659023
vn 0.96591693 0.0 0.2588523
vn 0.25888216 0.0 -0.9659089
f 22//9 23//9 27//9 28//9
f 23//10 24//10 29//10 27//10
f 24//11 13//11 19//11 29//11
g wall_2_11
usemtl wall_1_2
v 9746.745 1524.0 4565.9336
v 10971.978 1524.0 -6.066227
vn -0.96591693 0.0 -0.2588523
f 25//12 26//12 30//12 31//12
f 26//9 22//9 28//9 30//9
f 13//11 25//11 31//11 19//11
g wall_2_12
usemtl wall_1_2
f 19//1 28//1 27//1
f 19//1 27//1 29//1
g wall_2_13
usemtl wall_1_2
f 31//1 30//1 28//1
f 31//1 28//1 19//1
g wall_3_14
usemtl wall_1_2
v -3.0625 0.0 4545.148
v -3.0710049 0.0 4548.958
v 9750.416 0.0 4570.73
f 22//3 34//3 33//3
f 22//3 33//3 32//3
g wall_3_15
usemtl wall_1_2
v -3.0539951 0.0 4541.338
v 9750.434 0.0 4563.11
f 36//3 22//3 32//3
f 36//3 32//3 35//3
g wall_3_16
usemtl wall_1_2
v -3.0710049 1524.0 4548.958
v -3.0625 1524.0 4545.148
v 9750.416 1524.0 4570.73
vn -0.9999975 0.0 -0.0022322088
vn -0.0022322186 0.0 0.9999975
vn 0.9999973 0.0 0.002306799
f 32//13 33//13 37//13 38//13
f 33//14 34//14 39//14 37//14
f 34//15 22//15 28//15 39//15
g wall_3_17
usemtl wall_1_2
v -3.0539951 1524.0 4541.338
v 9750.434 1524.0 4563.11
vn 0.0022322186 0.0 -0.9999975
f 35//13 32//13 38//13 40//13
f 22//15 36//15 41//15 28//15
f 36//16 35//16 40//16 41//16
g wall_3_18
usemtl wall_1_2
f 38//1 37//1 39//1
f 38//1 39//1 28//1
g wall_3_19
usemtl wall_1_2
f 40//1 38//1 28//1
f 40//1 28//1 41//1
g wall_4_20
usemtl wall_1_2
v -6.872699 0.0 -4.968521
v -6.8728976 0.0 4545.148
v -3.0628977 0.0 4545.148
v -3.0626988 0.0 -4.968521
f 45//3 44//3 43//3
f 45//3 43//3 42//3
g wall_4_21
usemtl wall_1_2
v 0.74710226 0.0 4545.148
v 0.7473011 0.0 -4.968521
f 47//3 46//3 44//3
f 47//3 44//3 45//3
g wall_4_22
usemtl wall_1_2
v -6.8728976 1524.0 4545.148
v -6.872699 1524.0 -4.968521
v -3.0628977 1524.0 4545.148
v -3.0626988 1524.0 -4.968521
vn -1.0 0.0 -0
vn 0.0 0.0 1.0
vn 0.0 0.0 -1.0
f 42//17 43//17 48//17 49//17
f 43//18 44//18 50//18 48//18
f 45//19 42//19 49//19 51//19
g wall_4_23
usemtl wall_1_2
v 0.74710226 1524.0 4545.148
v 0.7473011 1524.0 -4.968521
vn 1.0 0.0 0
f 44//18 46//18 52//18 50//18
f 46//20 47//20 53//20 52//20
f 47//19 45//19 51//19 53//19
g wall_4_24
usemtl wall_1_2
f 49//1 48//1 50//1
f 49//1 50//1 51//1
g wall_4_25
usemtl wall_1_2
f 51//1 50//1 52//1
f 51//1 52//1 53//1
g room_5_26
usemtl wall_1_2
f 5//1 4//1 3//1
f 6//1 5//1 3//1
f 6//1 3//1 2//1
g room_5_27
usemtl wall_1_2
v 2.7473004 1524.0 0.8414788
v 10977.657 1524.0 0.8414788
v 9753.908 1524.0 4567.9336
v -1.0710049 1524.0 4567.9326
v -1.0712049 1524.0 -6.7785206
f 55//3 56//3 54//3
f 56//3 57//3 54//3
f 54//3 57//3 58//3
